<svg xmlns="http://www.w3.org/2000/svg" id="money_bag" version="1.1" baseProfile="full" width="400" height="400" viewBox="0 0 200 200">
  <g id="layer1">
    <g id="paths" transform="scale(1,0.7) translate(-9,-7)">
    <path style="fill:#ce4b99;fill-opacity:1;stroke:#ce4b99;stroke-width:1;stroke-linecap:butt;stroke-linejoin:miter;stroke-miterlimit:4;stroke-dasharray:none;stroke-opacity:1" d="m 75.780785,111.20661 c -2.313405,1.64919 -12.350758,13.86177 -13.650903,16.28243 -16.37854,30.49419 -26.851433,51.64852 -29.376505,86.81367 -0.753144,18.93232 7.377791,40.3357 25.290811,48.13083 32.512023,11.74487 67.154302,9.23505 101.262472,5.2841 13.30932,-3.16613 19.49293,-23.23829 20.31121,-36.72774 0.40693,-3.44065 0.61666,-6.8012 0.64076,-10.09164 0.0944,-12.88365 -2.65702,-24.69255 -7.55882,-36.02668 -7.54191,-19.32872 -12.82328,-22.90809 -22.63282,-40.07225 -5.86717,-8.5898 -18.20339,-33.9828 -18.20339,-33.9828 -4.88898,1.26989 -11.59645,2.28825 -16.94246,3.02726 -0.73974,0.10225 11.29973,29.29959 10.55009,29.40388 -1.13393,0.15777 -14.7716,-29.00575 -14.7716,-29.00575 -1.30419,-0.47317 1.4009,0.0295 0,0 -1.12947,-0.0238 -16.287549,-0.32098 -25.247775,-1.18563 -0.725835,-0.07 -16.819328,17.71899 -17.408249,17.66115 -1.55328,-0.15256 13.729455,-18.25863 13.485654,-18.29272" id="path3717"/>
    <path style="fill:#ce4b99;fill-opacity:1;stroke:#ce4b99;stroke-width:1;stroke-linecap:butt;stroke-linejoin:miter;stroke-miterlimit:4;stroke-dasharray:none;stroke-opacity:1" d="m 76.892584,104.23352 c 10.75636,1.49243 17.706708,2.91573 32.420686,2.47445 1.226,-0.0368 0.67395,-18.734566 1.87774,-18.800119 1.36082,-0.0741 1.46455,18.358739 2.78573,18.247209 5.90167,-0.49819 11.71818,-0.68625 16.17509,-1.96843 0,0 1.97621,-5.75563 3.58897,-10.489797 2.18346,-4.346032 10.83483,-22.76144 13.16079,-27.353354 0.95476,-5.672991 -13.86514,-20.127362 -20.67296,-18.467448 -2.23622,0.625992 -12.78456,29.177997 -12.03303,24.023149 1.09647,-11.855082 10.21781,-21.98514 11.0868,-33.846857 0.10072,-4.495724 -6.54233,-7.242206 -11.16381,-7.713053 -6.60895,-0.811424 -20.986522,-1.10527 -27.897197,-1.276832 -6.375323,0.64288 -9.04767,2.309355 -11.267684,6.549656 -1.948477,3.074923 -0.796528,2.949833 2.034381,12.389187 3.226026,11.508205 4.239766,12.462429 6.247011,23.881476 l -9.262757,-23.90837 c -7.673218,0.199322 -14.790089,13.393416 -19.057885,19.670599 -0.779983,2.413985 -1.038957,3.081628 -0.294691,5.775152 3.613602,6.233103 17.831899,24.958717 22.272816,30.813382 z" id="path3719"/></g>
    <text style="font-style:normal;font-variant:normal;font-weight:normal;font-stretch:normal;font-size:35.49649048px;line-height:1.25;font-family:Arial;-inkscape-font-specification:'Arial, Normal';font-variant-ligatures:normal;font-variant-caps:normal;font-variant-numeric:normal;font-feature-settings:normal;text-align:start;letter-spacing:0px;word-spacing:0px;writing-mode:lr-tb;text-anchor:start;fill:#000000;fill-opacity:1;stroke:none;stroke-width:1.2362361;stroke-miterlimit:4;stroke-dasharray:none" id="text830">
 
       <tspan x="40" y="140" style="font-style:normal;font-variant:normal;font-weight:normal;font-stretch:normal;font-size:45px;font-family:Arial;-inkscape-font-specification:'Arial, Normal';font-variant-ligatures:normal;font-variant-caps:normal;font-variant-numeric:normal;font-feature-settings:normal;text-align:start;writing-mode:lr-tb;text-anchor:start;fill:#ffffff;stroke-width:1.2362361;stroke-miterlimit:4;stroke-dasharray:none" id="tspan826">&#163;268</tspan>
       <tspan x="50" y="165" style="font-style:normal;font-variant:normal;font-weight:normal;font-stretch:normal;font-size:20px;font-family:Arial;-inkscape-font-specification:'Arial, Normal';font-variant-ligatures:normal;font-variant-caps:normal;font-variant-numeric:normal;font-feature-settings:normal;text-align:start;writing-mode:lr-tb;text-anchor:start;fill:#ffffff;stroke-width:1.2362361;stroke-miterlimit:4;stroke-dasharray:none" id="tspan826">BILLION</tspan>
     </text>
  </g>
</svg>